<svg width="90" height="46" viewBox="0 0 90 46" fill="none" xmlns="http://www.w3.org/2000/svg">
    <path d="M43.9291 31.036L25.9216 0C16.8204 5.2284 13.702 16.8081 18.9565 25.864L27.4503 40.5024C28.7119 42.6768 30.7899 44.2634 33.2271 44.9133C35.6644 45.5632 38.2613 45.223 40.4465 43.9677C42.6317 42.7123 44.2263 40.6447 44.8794 38.2195C45.5325 35.7943 45.1907 33.2103 43.9291 31.036Z" fill="#FF6666"/>
    <path d="M18.9942 35.7836C18.9942 30.5633 14.7422 26.3313 9.49708 26.3313C4.25199 26.3313 -6.43989e-07 30.5633 -4.14865e-07 35.7836C-1.85741e-07 41.004 4.25199 45.2359 9.49708 45.2359C14.7422 45.2359 18.9942 41.004 18.9942 35.7836Z" fill="#202E52"/>
    <path d="M54.4253 12.1615L47.6267 26.214C47.5308 26.4203 47.4766 26.6433 47.4673 26.8705C47.4579 27.0976 47.4936 27.3243 47.5722 27.5378C47.6508 27.7512 47.7708 27.9471 47.9255 28.1143C48.0801 28.2814 48.2662 28.4167 48.4733 28.5122C48.8915 28.7051 49.3695 28.7247 49.8022 28.5665C50.0164 28.4882 50.213 28.3686 50.3809 28.2146C50.5487 28.0606 50.6845 27.8751 50.7803 27.6689L51.6205 25.7307H57.1944L58.0777 27.6713C58.1729 27.8791 58.3084 28.066 58.4764 28.2214C58.6444 28.3767 58.8416 28.4975 59.0566 28.5766C59.2716 28.6558 59.5002 28.6918 59.7293 28.6825C59.9583 28.6733 60.1833 28.6191 60.3912 28.5229C60.5991 28.4267 60.7859 28.2905 60.9407 28.1221C61.0956 27.9538 61.2155 27.7566 61.2935 27.5418C61.3715 27.3271 61.4062 27.0992 61.3954 26.8711C61.3846 26.643 61.3287 26.4192 61.2308 26.2128L54.4253 12.1615ZM55.8938 22.765H52.9173L54.4253 19.4174L55.8938 22.765Z" fill="#202E52"/>
    <path d="M74.5558 12.1615C74.073 12.162 73.6101 12.3533 73.2687 12.6934C72.9273 13.0335 72.7353 13.4947 72.7348 13.9757V20.6588L63.3085 12.1615V26.8364C63.3041 27.0774 63.3479 27.3169 63.4374 27.5408C63.5269 27.7648 63.6603 27.9687 63.8298 28.1407C63.9993 28.3128 64.2015 28.4494 64.4246 28.5427C64.6477 28.6359 64.8872 28.684 65.1292 28.684C65.3711 28.684 65.6107 28.6359 65.8338 28.5427C66.0569 28.4494 66.2591 28.3128 66.4286 28.1407C66.5981 27.9687 66.7315 27.7648 66.821 27.5408C66.9105 27.3169 66.9543 27.0774 66.9498 26.8364V20.1539L76.3767 28.6506V13.9757C76.3761 13.4947 76.184 13.0337 75.8426 12.6936C75.5013 12.3535 75.0385 12.1621 74.5558 12.1615V12.1615Z" fill="#202E52"/>
    <path d="M88.1994 20.0182C88.0517 19.899 87.8966 19.7891 87.7351 19.6893C87.713 19.6733 87.1768 19.294 86.2095 18.8483C86.0397 18.7702 85.8589 18.6903 85.6634 18.6104C85.5133 18.5489 85.3608 18.4874 85.2077 18.426L85.1278 18.394C83.8837 17.9022 83.0191 17.4823 83.2214 16.5374C83.2448 16.4024 83.2986 16.2744 83.3787 16.1632C83.4588 16.052 83.5632 15.9605 83.6839 15.8956C84.2373 15.595 85.2212 15.7376 85.9469 16.013C86.318 16.1656 86.671 16.3592 86.9991 16.5903C87.0765 16.6456 87.154 16.7034 87.2315 16.7649C87.2991 16.8171 87.3704 16.8644 87.4449 16.9063C87.5045 16.9405 87.5661 16.9711 87.6294 16.9979C88.0002 17.1516 88.4134 17.17 88.7964 17.0498C89.1795 16.9297 89.508 16.6786 89.7246 16.3406C89.9411 16.0026 90.0317 15.5993 89.9807 15.2012C89.9296 14.8031 89.7401 14.4356 89.4453 14.1632L89.4041 14.1257C89.1135 13.8383 88.7934 13.5823 88.4491 13.3621C87.6122 12.823 86.5963 12.4461 85.5121 12.2734C85.0531 12.1997 84.589 12.1623 84.1242 12.1615C81.3944 12.1615 79.4131 14.1423 79.4131 16.8712C79.4143 17.6785 79.6224 18.472 80.0176 19.1759C80.4128 19.8799 80.9819 20.4709 81.6705 20.8924L81.6921 20.9059C81.7831 20.96 82.2726 21.2471 82.9459 21.5625C83.3149 21.7359 83.6796 21.8896 84.0301 22.0199C84.1531 22.0654 84.2779 22.1094 84.4046 22.1521C85.2827 22.4447 85.8706 22.864 86.1055 23.3638C86.2537 23.681 86.255 24.0308 86.1092 24.4033C86.0016 24.6794 85.6972 24.9087 85.2741 25.0322C84.4495 25.2726 83.0351 25.1404 81.5408 24.0486C81.4098 23.9515 81.288 23.855 81.1718 23.7535C80.8351 23.4675 80.4008 23.3227 79.9597 23.3492C79.5186 23.3757 79.1049 23.5716 78.8048 23.8959C78.5048 24.2202 78.3417 24.6479 78.3496 25.0895C78.3576 25.5312 78.5359 25.9527 78.8473 26.2661C79.0891 26.5074 79.3449 26.7343 79.6135 26.9454C79.8711 27.1529 80.1432 27.3417 80.4277 27.5104C81.6822 28.2733 82.6901 28.4325 82.7326 28.4381H82.7405C83.3877 28.5981 84.0516 28.6806 84.7182 28.684C88.0746 28.684 90 26.9011 90 23.7898C90.0031 23.0662 89.8427 22.3513 89.531 21.6982C89.2192 21.0452 88.7641 20.4709 88.1994 20.0182V20.0182Z" fill="#202E52"/>
</svg>
