<svg width="674" height="677" viewBox="0 0 674 677" fill="none" xmlns="http://www.w3.org/2000/svg">
<path d="M654.996 464.428L386.499 0C250.797 78.2387 204.301 251.519 282.647 387.034L409.292 606.086C428.103 638.624 459.086 662.367 495.427 672.091C531.767 681.816 570.487 676.726 603.07 657.941C635.652 639.156 659.428 608.215 669.165 571.924C678.903 535.633 673.806 496.966 654.996 464.428Z" fill="#2B385B"/>
<path d="M283.209 535.474C283.209 457.355 219.81 394.028 141.604 394.028C63.3984 394.028 -9.60206e-06 457.355 -6.18576e-06 535.474C-2.76946e-06 613.592 63.3984 676.919 141.604 676.919C219.81 676.919 283.209 613.592 283.209 535.474Z" fill="#2B385B"/>
</svg>
