<?xml version="1.0" encoding="UTF-8"?>
<svg width="20px" height="20px" viewBox="0 0 206 145" version="1.1" xmlns="http://www.w3.org/2000/svg" xmlns:xlink="http://www.w3.org/1999/xlink">
    <title>cloud-computing</title>
    <g id="Page-1" stroke="none" stroke-width="1" fill="none" fill-rule="evenodd">
        <g id="cloud-computing" fill="#fff" fill-rule="nonzero">
            <path d="M180.563426,64.2430556 C186.703594,30.7126111 160.899277,0 127.140625,0 C107.632988,0 90.1760977,10.3598472 80.5564609,26.3956389 C67.4352266,22.1511667 53.9438359,23.9600417 42.8286875,31.6200694 C31.7195742,39.2756667 25.0849258,51.3968611 24.5477969,64.6542917 C9.70372656,71.6549722 0,86.4514167 0,102.708333 C0,105.492736 0.272789063,108.277944 0.810320312,110.987431 C4.72069922,130.695347 22.1466094,145 42.2460938,145 L163.351562,145 C186.86775,145 206,126.027958 206,102.708333 C206,86.0679722 195.915254,71.0471806 180.563426,64.2430556 Z M163.351562,132.916667 L42.2460938,132.916667 C25.75,132.916667 12.0703125,119.530347 12.0703125,102.708333 C12.0703125,90.1215278 20.3332461,78.735 32.6316875,74.3749306 L36.9166484,72.8556528 L36.641043,68.313125 C35.9928672,57.6395139 40.8648477,47.6429722 49.6733594,41.5727083 C58.9880195,35.1532361 70.4149844,34.7097778 80.8747148,39.4577222 L86.3111836,41.9255417 L88.8358906,36.5105972 C95.7545937,21.6718611 110.79018,12.0833333 127.140625,12.0833333 C150.435121,12.0833333 169.386719,31.055375 169.386719,54.375 C169.386719,61.2729722 167.933051,65.449375 166.325688,70.9791111 C170.825902,73.3176389 171.554145,73.7510278 173.069371,74.2706111 C185.546453,78.5489167 193.929688,89.9773333 193.929688,102.708333 C193.929688,119.365208 180.21218,132.916667 163.351562,132.916667 Z" id="Shape"></path>
        </g>
    </g>
</svg>
