<svg width="16px" height="14px" viewBox="0 0 16 14" version="1.1" xmlns="http://www.w3.org/2000/svg" xmlns:xlink="http://www.w3.org/1999/xlink">
    <title>coins (1)</title>
    <g id="Page-1" stroke="none" stroke-width="1" fill="none" fill-rule="evenodd">
        <g id="Home-/-Dashboard" transform="translate(-269.000000, -139.000000)" fill="#FFFFFF" fill-rule="nonzero">
            <g id="coins-(1)" transform="translate(269.000000, 139.000000)">
                <path d="M8,14 C4.12114286,14 0,12.7977143 0,10.5714286 C0,10.256 0.256,10 0.571428571,10 C0.886857143,10 1.14285714,10.256 1.14285714,10.5714286 C1.14285714,11.5257143 3.75085714,12.8571429 8,12.8571429 C12.2491429,12.8571429 14.8571429,11.5257143 14.8571429,10.5714286 C14.8571429,10.256 15.1131429,10 15.4285714,10 C15.744,10 16,10.256 16,10.5714286 C16,12.7977143 11.8788571,14 8,14 Z" id="Path"></path>
                <path d="M8,10 C4.12114286,10 0,8.79771429 0,6.57142857 C0,6.256 0.256,6 0.571428571,6 C0.886857143,6 1.14285714,6.256 1.14285714,6.57142857 C1.14285714,7.52571429 3.75085714,8.85714286 8,8.85714286 C12.2491429,8.85714286 14.8571429,7.52571429 14.8571429,6.57142857 C14.8571429,6.256 15.1131429,6 15.4285714,6 C15.744,6 16,6.256 16,6.57142857 C16,8.79771429 11.8788571,10 8,10 Z" id="Path"></path>
                <path d="M8,7 C4.12114286,7 0,5.77266667 0,3.5 C0,1.22733333 4.12114286,0 8,0 C11.8788571,0 16,1.22733333 16,3.5 C16,5.77266667 11.8788571,7 8,7 Z M8,1.16666667 C3.75085714,1.16666667 1.14285714,2.52583333 1.14285714,3.5 C1.14285714,4.47416667 3.75085714,5.83333333 8,5.83333333 C12.2491429,5.83333333 14.8571429,4.47416667 14.8571429,3.5 C14.8571429,2.52583333 12.2491429,1.16666667 8,1.16666667 Z" id="Shape"></path>
                <path d="M15.5,11 C15.224,11 15,10.744 15,10.4285714 L15,3.57142857 C15,3.256 15.224,3 15.5,3 C15.776,3 16,3.256 16,3.57142857 L16,10.4285714 C16,10.744 15.776,11 15.5,11 Z" id="Path"></path>
                <path d="M0.5,11 C0.224,11 0,10.744 0,10.4285714 L0,3.57142857 C0,3.256 0.224,3 0.5,3 C0.776,3 1,3.256 1,3.57142857 L1,10.4285714 C1,10.744 0.776,11 0.5,11 Z" id="Path"></path>
            </g>
        </g>
    </g>
</svg>