<svg width="16" height="16" viewBox="0 0 16 16" fill="none" xmlns="http://www.w3.org/2000/svg">
<path d="M3.40381 3.40381C3.80547 3.00214 4.25806 2.65486 4.75 2.37083" stroke="#ffffff" stroke-linecap="round"/>
<path d="M1.81813 5.99139C1.39396 7.29687 1.39396 8.70313 1.81813 10.0086C2.24231 11.3141 3.06889 12.4518 4.1794 13.2586C5.2899 14.0654 6.62733 14.5 8 14.5C9.37266 14.5 10.7101 14.0654 11.8206 13.2586C12.9311 12.4518 13.7577 11.3141 14.1819 10.0086C14.606 8.70313 14.606 7.29687 14.1819 5.99139C13.7577 4.68591 12.9311 3.54822 11.8206 2.74139C10.7101 1.93456 9.37267 1.5 8 1.5" stroke="#ffffff" stroke-linecap="round"/>
<rect x="6" y="6" width="4" height="4" rx="1.5" stroke="#ffffff"/>
</svg>
