<svg width="18" height="18" viewBox="0 0 18 18" fill="none" xmlns="http://www.w3.org/2000/svg">
<path d="M16.9999 1L14.2159 1.5728C13.8607 1.6464 13.5087 1.7264 13.1631 1.832C10.7439 2.5904 8.61273 4.08159 7.07353 6.10718L5.43834 8.25758L9.74233 12.5616L11.8927 10.9264C13.7743 9.49597 15.1951 7.55358 15.9951 5.34559C16.1903 4.80479 16.3343 4.24479 16.4495 3.68159L17.0031 1H16.9999Z" stroke="white" stroke-linecap="round" stroke-linejoin="round"/>
<path d="M8.26078 4.62891C8.26078 4.62891 4.22559 3.82251 1 7.0481C1 7.0481 3.95679 6.2417 6.11038 7.3169" stroke="white" stroke-linecap="round" stroke-linejoin="round"/>
<path d="M13.3711 9.73926C13.3711 9.73926 14.1775 13.7744 10.9519 17C10.9519 17 11.7583 14.0432 10.6831 11.8897" stroke="white" stroke-linecap="round" stroke-linejoin="round"/>
<path d="M8.93076 11.7565L6.24263 9.06836L5.16783 10.1432L7.85596 12.8313L8.93076 11.7565Z" stroke="white" stroke-linecap="round" stroke-linejoin="round"/>
<path d="M4.99365 11.6497C4.19451 12.0723 3.1092 13.0065 2.99686 14.9776" stroke="white" stroke-linecap="round" stroke-linejoin="round"/>
<path d="M6.32485 12.9807C5.90218 13.7799 4.96797 14.8652 2.99686 14.9775" stroke="white" stroke-linecap="round" stroke-linejoin="round"/>
<path d="M15.9696 5.25589C15.3008 4.98709 14.632 4.54869 14.04 3.95669C13.448 3.3647 13.0128 2.6959 12.7408 2.0271" stroke="white" stroke-linecap="round" stroke-linejoin="round"/>
<path d="M11.352 8.16792C12.1915 8.16792 12.872 7.4874 12.872 6.64792C12.872 5.80845 12.1915 5.12793 11.352 5.12793C10.5126 5.12793 9.83205 5.80845 9.83205 6.64792C9.83205 7.4874 10.5126 8.16792 11.352 8.16792Z" stroke="white" stroke-linecap="round" stroke-linejoin="round"/>
</svg>
