<?xml version="1.0" encoding="UTF-8"?>
<svg width="20px" height="20px" viewBox="0 0 180 162" version="1.1" xmlns="http://www.w3.org/2000/svg" xmlns:xlink="http://www.w3.org/1999/xlink">
    <title>graph</title>
    <g id="Page-1" stroke="none" stroke-width="1" fill="none" fill-rule="evenodd">
        <g id="graph" fill="#fff" fill-rule="nonzero">
            <path d="M162,2.98735397e-05 C152.078906,-0.0178698338 144.021445,8.01040845 144.003516,17.9318501 C143.995078,22.6079812 145.810547,27.1034092 149.063906,30.4622361 L116.178047,96.222329 C115.457344,96.1027978 114.729961,96.0286181 114.000117,96.0004931 C111.676289,96.0050634 109.375664,96.461743 107.226211,97.3445161 L81.6960938,68.6345267 C83.1863672,65.9995667 83.9794922,63.02781 84.0002344,60.0005064 C84.0002344,50.0593773 75.9413672,42.0005131 66.0002344,42.0005131 C56.0591016,42.0005131 48.0002344,50.0593773 48.0002344,60.0005064 C48.0178125,64.2973017 49.5861328,68.4432767 52.4162109,71.6765959 L21.2160938,126.324154 C20.1557813,126.120248 19.0796484,126.011615 18,126.000013 C8.05886719,126.000013 0,134.058878 0,144.000007 C0,153.941136 8.05886719,162 18,162 C27.9411328,162 36,153.941136 36,144.000007 C35.9824219,139.703211 34.4141016,135.557236 31.5840234,132.323917 L62.7841406,77.6760077 C66.1334766,78.3376481 69.6041016,77.9825701 72.7502344,76.6561253 L98.2803516,105.366115 C96.7985156,108.003184 96.0134766,110.974941 96.0004688,114.000135 C95.9705859,123.941264 104.004844,132.024386 113.945977,132.054269 C123.887109,132.084152 131.970234,124.049897 132.000117,114.108768 C132.01418,109.418926 130.197305,104.908732 126.936211,101.538304 L159.82207,35.7782107 C160.542773,35.8977419 161.270156,35.9719216 162,36.0000465 C171.941133,36.0000465 180,27.9411823 180,18.0000532 C180,8.05892406 171.941133,2.98735397e-05 162,2.98735397e-05 Z M18,150.000122 C14.6861719,150.000122 11.9998828,147.313834 11.9998828,144.000007 C11.9998828,140.68618 14.6861719,137.999892 18,137.999892 C21.3138281,137.999892 24.0001172,140.68618 24.0001172,144.000007 C24.0001172,147.313834 21.3138281,150.000122 18,150.000122 Z M65.9998828,65.9999183 C62.6860547,65.9999183 59.9997656,63.3136302 59.9997656,59.9998033 C59.9997656,56.6859764 62.6860547,53.9996883 65.9998828,53.9996883 C69.3137109,53.9996883 72,56.6859764 72,59.9998033 C72,63.3136302 69.3137109,65.9999183 65.9998828,65.9999183 Z M114.000117,119.999898 C110.686289,119.999898 108,117.31361 108,113.999783 C108,110.685956 110.686289,107.999668 114.000117,107.999668 C117.313945,107.999668 120.000234,110.685956 120.000234,113.999783 C119.999883,117.31361 117.313594,119.999898 114.000117,119.999898 Z M162,24.0001682 C158.686172,24.0001682 155.999883,21.3138801 155.999883,18.0000532 C155.999883,14.6862263 158.686172,11.9999382 162,11.9999382 C165.313828,11.9999382 168.000117,14.6862263 168.000117,18.0000532 C168.000117,21.3138801 165.313828,24.0001682 162,24.0001682 Z" id="Shape"></path>
        </g>
    </g>
</svg>
