<?xml version="1.0" encoding="UTF-8"?>
<svg width="20px" height="20px" viewBox="0 0 152 180" version="1.1" xmlns="http://www.w3.org/2000/svg" xmlns:xlink="http://www.w3.org/1999/xlink">
    <title>verified</title>
    <g id="Page-1" stroke="none" stroke-width="1" fill="none" fill-rule="evenodd">
        <g id="verified" fill="#fff" fill-rule="nonzero">
            <path d="M147.661315,29.146618 L78.6983519,0.537495519 C76.9707593,-0.178989381 75.0288889,-0.179340944 73.3016481,0.537495519 L4.33868519,29.146618 C1.71211111,30.2364626 0,32.798652 0,35.6403337 L0,70.4186795 C0,118.306097 28.9676111,161.382027 73.3407037,179.47872 C75.0450741,180.17376 76.9545741,180.17376 78.6592963,179.47872 C123.031685,161.382379 152,118.306449 152,70.4186795 L152,35.6403337 C152,32.798652 150.288241,30.2364626 147.661315,29.146618 Z M137.925926,70.4186795 C137.925926,111.127889 114,148.603424 76,165.331483 C39.0154444,149.050261 14.0740741,112.231093 14.0740741,70.4186795 L14.0740741,40.3343997 L76,14.6443027 L137.925926,40.3343997 L137.925926,70.4186795 Z M68.221963,94.1189312 L98.4685556,63.8975419 C101.216519,61.1518368 105.672019,61.1514852 108.420333,63.8975419 C111.168648,66.6435986 111.168296,71.0954378 108.419981,73.841143 L73.1978519,109.034333 C70.4491852,111.780741 65.9936852,111.779686 63.2460741,109.034333 L43.5796667,89.384084 C40.8313519,86.6380273 40.8313519,82.1861881 43.5796667,79.440483 C46.3279815,76.6947779 50.7834815,76.6944263 53.5314444,79.440483 L68.221963,94.1189312 Z" id="Shape"></path>
        </g>
    </g>
</svg>